<!-- <?xml version="1.0" encoding="UTF-8"?>
<!DOCTYPE svg PUBLIC "-//W3C//DTD SVG 1.1//EN" "http://www.w3.org/Graphics/SVG/1.1/DTD/svg11.dtd"> -->
<svg version="1.1" xmlns="http://www.w3.org/2000/svg" x="0" y="0" width="567" height="1029" viewBox="0, 0, 567, 1029">
  <g id="Layer_1">
    <g>
      <path d="M549.947,611.912 L16.554,611.912 C16.542,779.69 16.542,871.695 16.542,871.695 L43.957,945.023 C43.957,945.023 140.793,1022.336 289.935,1022.336 C439.102,1022.336 522.521,945.023 522.521,945.023 L549.96,871.674 C549.96,871.674 549.96,779.69 549.947,611.912 z" fill="#E4E4E3"/>
      <path d="M549.947,611.912 L16.554,611.912 C16.542,779.69 16.542,871.695 16.542,871.695 L43.957,945.023 C43.957,945.023 140.793,1022.336 289.935,1022.336 C439.102,1022.336 522.521,945.023 522.521,945.023 L549.96,871.674 C549.96,871.674 549.96,779.69 549.947,611.912 z" fill-opacity="0" stroke="#1A1919" stroke-width="11.692" stroke-linecap="round" stroke-linejoin="round"/>
    </g>
    <g>
      <path d="M560.532,202.897 L535.321,147.946 L31.145,147.946 L5.969,202.897 C6.015,239.216 5.969,855.322 5.969,855.322 C5.969,855.322 63.299,971.877 283.244,971.877 C503.18,971.877 560.532,855.322 560.532,855.322 C560.532,855.322 560.487,237.921 560.532,202.897 z" fill="#9900CC"/>
      <path d="M560.532,202.897 L535.321,147.946 L31.145,147.946 L5.969,202.897 C6.015,239.216 5.969,855.322 5.969,855.322 C5.969,855.322 63.299,971.877 283.244,971.877 C503.18,971.877 560.532,855.322 560.532,855.322 C560.532,855.322 560.487,237.921 560.532,202.897 z" fill-opacity="0" stroke="#1A1919" stroke-width="11.692" stroke-linecap="round" stroke-linejoin="round"/>
    </g>
    <g>
      <path d="M535.366,95.378 C535.366,144.659 422.453,184.656 283.244,184.656 C144.001,184.656 31.145,144.659 31.145,95.378 C31.145,46.086 144.001,6.111 283.244,6.111 C422.453,6.111 535.366,46.086 535.366,95.378 z" fill="#E4E4E3"/>
      <path d="M535.366,95.378 C535.366,144.659 422.453,184.656 283.244,184.656 C144.001,184.656 31.145,144.659 31.145,95.378 C31.145,46.086 144.001,6.111 283.244,6.111 C422.453,6.111 535.366,46.086 535.366,95.378 z" fill-opacity="0" stroke="#1A1919" stroke-width="11.692" stroke-linecap="round" stroke-linejoin="round"/>
    </g>
    <g>
      <path d="M44.037,123.547 C77.366,88.053 171.815,62.465 283.244,62.465 C394.639,62.465 489.124,88.053 522.464,123.547 C530.787,114.686 535.366,105.22 535.366,95.378 C535.366,46.086 422.453,6.111 283.244,6.111 C144.001,6.111 31.145,46.086 31.145,95.378 C31.145,105.22 35.713,114.686 44.037,123.547 z" fill="#E4E4E3"/>
      <path d="M44.037,123.547 C77.366,88.053 171.815,62.465 283.244,62.465 C394.639,62.465 489.124,88.053 522.464,123.547 C530.787,114.686 535.366,105.22 535.366,95.378 C535.366,46.086 422.453,6.111 283.244,6.111 C144.001,6.111 31.145,46.086 31.145,95.378 C31.145,105.22 35.713,114.686 44.037,123.547 z" fill-opacity="0" stroke="#1A1919" stroke-width="11.692" stroke-linecap="round" stroke-linejoin="round"/>
    </g>
    <g>
      <path d="M234.193,114.338 C239.183,101.966 257.978,93.636 276.873,93.636 L284.684,93.636 C303.581,93.636 322.374,101.966 327.365,114.338 L343.533,154.346 C355.624,184.318 333.781,219.126 289.891,219.126 L271.679,219.126 C227.788,219.126 205.898,184.318 218.025,154.346 L234.193,114.338 z" fill="#E4E4E3"/>
      <path d="M234.193,114.338 C239.183,101.966 257.978,93.636 276.873,93.636 L284.684,93.636 C303.581,93.636 322.374,101.966 327.365,114.338 L343.533,154.346 C355.624,184.318 333.781,219.126 289.891,219.126 L271.679,219.126 C227.788,219.126 205.898,184.318 218.025,154.346 L234.193,114.338 z" fill-opacity="0" stroke="#1A1919" stroke-width="9" stroke-linecap="round" stroke-linejoin="round"/>
    </g>
    <g>
      <path d="M229.843,156.214 C233.429,145.091 254.105,137.099 276.187,137.099 L285.369,137.099 C307.44,137.099 328.106,145.091 331.703,156.214 L333.85,162.813 C338.394,176.914 317.728,190.41 287.127,190.41 L274.419,190.41 C243.819,190.41 223.128,176.914 227.696,162.813 L229.843,156.214 z" fill="#E4E4E3"/>
      <path d="M229.843,156.214 C233.429,145.091 254.105,137.099 276.187,137.099 L285.369,137.099 C307.44,137.099 328.106,145.091 331.703,156.214 L333.85,162.813 C338.394,176.914 317.728,190.41 287.127,190.41 L274.419,190.41 C243.819,190.41 223.128,176.914 227.696,162.813 L229.843,156.214 z" fill-opacity="0" stroke="#1A1919" stroke-width="9" stroke-linecap="round" stroke-linejoin="round"/>
    </g>
    <g>
      <path d="M244.686,110.348 C246.536,104.655 261.185,100.413 277.422,100.413 L284.135,100.413 C300.373,100.413 314.999,104.655 316.859,110.348 L317.921,113.608 C320.114,120.35 305.407,126.498 285.025,126.498 L276.531,126.498 C256.149,126.498 241.444,120.35 243.636,113.608 L244.686,110.348 z" fill="#E4E4E3"/>
      <path d="M244.686,110.348 C246.536,104.655 261.185,100.413 277.422,100.413 L284.135,100.413 C300.373,100.413 314.999,104.655 316.859,110.348 L317.921,113.608 C320.114,120.35 305.407,126.498 285.025,126.498 L276.531,126.498 C256.149,126.498 241.444,120.35 243.636,113.608 L244.686,110.348 z" fill-opacity="0" stroke="#1A1919" stroke-width="9" stroke-linecap="round" stroke-linejoin="round"/>
    </g>
    <g>
      <path d="M257.736,132.755 C259.186,124.277 269.601,118.164 281.132,118.164 C292.676,118.164 303.111,124.277 304.608,132.755 C306.343,142.46 295.976,151.417 281.224,151.417 C266.482,151.417 256.047,142.46 257.736,132.755 z" fill="#E4E4E3"/>
      <path d="M257.736,132.755 C259.186,124.277 269.601,118.164 281.132,118.164 C292.676,118.164 303.111,124.277 304.608,132.755 C306.343,142.46 295.976,151.417 281.224,151.417 C266.482,151.417 256.047,142.46 257.736,132.755 z" fill-opacity="0" stroke="#1A1919" stroke-width="9" stroke-linecap="round" stroke-linejoin="round"/>
    </g>
    <g>
      <path d="M270.696,132.485 C270.993,128.56 275.651,125.533 281.144,125.533 C286.648,125.533 291.341,128.56 291.659,132.485 C292.003,136.654 287.332,140.227 281.19,140.227 C275.081,140.227 270.376,136.654 270.696,132.485 z" fill="#E4E4E3"/>
      <path d="M270.696,132.485 C270.993,128.56 275.651,125.533 281.144,125.533 C286.648,125.533 291.341,128.56 291.659,132.485 C292.003,136.654 287.332,140.227 281.19,140.227 C275.081,140.227 270.376,136.654 270.696,132.485 z" fill-opacity="0" stroke="#1A1919" stroke-width="11.692" stroke-linecap="round" stroke-linejoin="round"/>
    </g>
    <g>
      <path d="M283.244,184.656 C144.001,184.656 31.145,144.659 31.145,95.378 L31.145,157.549 L31.157,140.28 C31.214,189.565 144.048,229.517 283.244,229.517 C422.408,229.517 535.274,189.565 535.321,140.28 L535.366,157.549 L535.366,95.378 C535.366,144.659 422.453,184.656 283.244,184.656 z" fill="#E4E4E3"/>
      <path d="M283.244,184.656 C144.001,184.656 31.145,144.659 31.145,95.378 L31.145,157.549 L31.157,140.28 C31.214,189.565 144.048,229.517 283.244,229.517 C422.408,229.517 535.274,189.565 535.321,140.28 L535.366,157.549 L535.366,95.378 C535.366,144.659 422.453,184.656 283.244,184.656 z" fill-opacity="0" stroke="#1A1919" stroke-width="11.692" stroke-linecap="round" stroke-linejoin="round"/>
    </g>
    <g>
      <path d="M560.521,419.662 C520.136,507.204 432.822,616.035 253.215,579.641 C138.51,556.381 60.057,568.68 5.98,599.85 C5.98,624.25 5.98,648.6 5.98,672.389 C28.279,653.783 53.457,640.768 81.602,636.918 C247.952,614.168 354.071,741.69 447.779,767.678 C486.828,778.502 525.227,775.967 560.521,760.772 C560.521,656.455 560.521,521.796 560.521,419.662 z" fill="#FFFFFE"/>
      <path d="M560.521,419.662 C520.136,507.204 432.822,616.035 253.215,579.641 C138.51,556.381 60.057,568.68 5.98,599.85 C5.98,624.25 5.98,648.6 5.98,672.389 C28.279,653.783 53.457,640.768 81.602,636.918 C247.952,614.168 354.071,741.69 447.779,767.678 C486.828,778.502 525.227,775.967 560.521,760.772 C560.521,656.455 560.521,521.796 560.521,419.662 z" fill-opacity="0" stroke="#1A1919" stroke-width="11.692" stroke-linecap="round" stroke-linejoin="round"/>
    </g>
  </g>
</svg>
